# File created by Blade
# Date/Time:  Fri Jan 16 15:45:48 2015
# Frame Rate: 120.000 fps
#------------------------------------------------------
:FULLY-SPECIFIED
:DEGREES
3719
root -6.359844 35.166253 -9.239077 2.113303 8.721046 -3.863564
Spine -11.365585 -1.386517 2.164202
Head 10.047903 -19.524598 -3.092549
LeftShoulder -17.590588 12.970173 -17.451435
LeftArm 20.056755 9.787412 -67.390469
LeftForeArm 16.701238 -0.000000 11.545312
LeftHand 2.347502 0.000000 -8.905969
LeftHandThumb1 -26.253704 0.000000 33.147579
RightShoulder -14.580760 32.966252 -49.006110
RightArm 110.278744 68.618420 96.899575
RightForeArm 25.110233 -0.000000 113.704852
RightHand -2.757129 -0.000000 -59.481116
RightHandThumb1 -24.326973 -0.000000 -32.862282
LeftUpLeg 5.431675 8.164388 6.533404
LeftLeg -8.871118 -0.000000 0.000000
LeftFoot -12.940452 20.247634 -9.628185
LeftToeBase 22.517861 -0.000000 -0.000000
RightUpLeg 7.677398 -12.278062 2.822430
RightLeg -5.307271 -0.000000 0.000000
RightFoot -8.043499 -31.597661 6.118490
RightToeBase 12.676352 -0.000000 -0.000000
3720
root -6.356984 35.165779 -9.239868 2.099574 8.742301 -3.867154
Spine -11.336980 -1.378735 2.171802
Head 9.970527 -19.554669 -3.067096
LeftShoulder -17.601929 12.964741 -17.448652
LeftArm 20.040161 9.720032 -67.403350
LeftForeArm 16.773690 -0.000000 11.518949
LeftHand 2.357947 -0.000000 -8.768244
LeftHandThumb1 -26.253704 0.000000 33.147579
RightShoulder -14.604623 33.003463 -49.077497
RightArm 109.460444 68.770229 95.887880
RightForeArm 25.423393 0.000000 111.430615
RightHand -3.270332 -0.000000 -59.534464
RightHandThumb1 -24.326973 -0.000000 -32.862282
LeftUpLeg 5.443211 8.116552 6.531602
LeftLeg -8.881318 -0.000000 0.000000
LeftFoot -12.948024 20.286768 -9.586305
LeftToeBase 22.556032 -0.000000 -0.000000
RightUpLeg 7.702574 -12.288071 2.821167
RightLeg -5.330091 -0.000000 0.000000
RightFoot -8.032703 -31.608963 6.111428
RightToeBase 12.700950 -0.000000 -0.000000
3721
root -6.354194 35.165390 -9.241697 2.093363 8.767444 -3.868489
Spine -11.316401 -1.372082 2.179982
Head 9.889456 -19.600323 -3.048150
LeftShoulder -17.604254 12.976254 -17.456804
LeftArm 20.035328 9.640717 -67.406066
LeftForeArm 16.785283 -0.000000 11.495376
LeftHand 2.374465 -0.000000 -8.707072
LeftHandThumb1 -26.253704 0.000000 33.147579
RightShoulder -14.610858 33.027829 -49.154045
RightArm 108.618936 68.979920 94.780524
RightForeArm 25.853582 -0.000000 109.102615
RightHand -3.426547 0.000000 -59.813185
RightHandThumb1 -24.326973 -0.000000 -32.862282
LeftUpLeg 5.448170 8.020708 6.525867
LeftLeg -8.894556 -0.000000 0.000000
LeftFoot -12.948382 20.363981 -9.579235
LeftToeBase 22.570834 -0.000000 -0.000000
RightUpLeg 7.718976 -12.294210 2.818778
RightLeg -5.351431 -0.000000 0.000000
RightFoot -8.012856 -31.632293 6.100863
RightToeBase 12.668240 -0.000000 -0.000000
3722
root -6.351375 35.164875 -9.243257 2.090806 8.791392 -3.874091
Spine -11.311863 -1.366359 2.187320
Head 9.853925 -19.637077 -3.016629
LeftShoulder -17.607096 12.953672 -17.445656
LeftArm 20.001903 9.585526 -67.417957
LeftForeArm 16.843345 -0.000000 11.438956
LeftHand 2.365959 0.000000 -8.920131
LeftHandThumb1 -26.253704 0.000000 33.147579
RightShoulder -14.622923 33.040898 -49.229029
RightArm 107.766047 69.156240 93.695329
RightForeArm 26.328523 0.000000 106.798425
RightHand -3.696646 0.000000 -59.888574
RightHandThumb1 -24.326973 -0.000000 -32.862282
LeftUpLeg 5.445574 7.953589 6.522287
LeftLeg -8.906097 -0.000000 0.000000
LeftFoot -12.960112 20.404339 -9.582127
LeftToeBase 22.587997 -0.000000 -0.000000
RightUpLeg 7.725128 -12.301843 2.821696
RightLeg -5.362120 -0.000000 0.000000
RightFoot -8.013627 -31.649475 6.119686
RightToeBase 12.671923 -0.000000 -0.000000
3723
root -6.348887 35.165881 -9.247073 2.091705 8.823767 -3.867802
Spine -11.316022 -1.359722 2.195577
Head 9.844186 -19.696990 -3.047344
LeftShoulder -17.576951 12.952922 -17.467834
LeftArm 19.987595 9.600666 -67.348483
LeftForeArm 16.794571 -0.000000 11.400511
LeftHand 2.481158 0.000000 -8.823819
LeftHandThumb1 -26.253704 0.000000 33.147579
RightShoulder -14.839786 33.392281 -49.537362
RightArm 105.520170 69.212613 91.405685
RightForeArm 26.632489 -0.000000 104.622825
RightHand -3.829664 -0.000000 -59.722645
RightHandThumb1 -24.326973 -0.000000 -32.862282
LeftUpLeg 5.433943 7.847584 6.505842
LeftLeg -8.908016 -0.000000 0.000000
LeftFoot -12.944514 20.495800 -9.566401
LeftToeBase 22.549483 -0.000000 -0.000000
RightUpLeg 7.723288 -12.308610 2.814305
RightLeg -5.364842 -0.000000 0.000000
RightFoot -7.998374 -31.690959 6.098156
RightToeBase 12.687821 -0.000000 -0.000000
3724
root -6.347037 35.163682 -9.248415 2.090443 8.845851 -3.874371
Spine -11.367004 -1.386104 2.127415
Head 9.959042 -19.727077 -2.848785
LeftShoulder -17.572782 13.004332 -17.374006
LeftArm 19.972831 9.479644 -67.449842
LeftForeArm 16.851396 -0.000000 11.347574
LeftHand 2.437980 -0.000000 -8.658657
LeftHandThumb1 -26.253704 0.000000 33.147579
RightShoulder -12.402978 28.135245 -45.980971
RightArm 122.399199 69.678676 104.147660
RightForeArm 27.234088 -0.000000 100.998066
RightHand -3.941669 -0.000000 -60.675283
RightHandThumb1 -24.326973 -0.000000 -32.862282
LeftUpLeg 5.434409 7.770101 6.506509
LeftLeg -8.920857 -0.000000 0.000000
LeftFoot -12.948734 20.556900 -9.528610
LeftToeBase 22.537234 -0.000000 -0.000000
RightUpLeg 7.727387 -12.321181 2.821947
RightLeg -5.375847 -0.000000 0.000000
RightFoot -7.995171 -31.696743 6.071605
RightToeBase 12.741452 -0.000000 -0.000000
3725
root -6.343287 35.162613 -9.248502 2.076207 8.829927 -3.885691
Spine -11.377761 -1.335879 2.139017
Head 9.990593 -19.791548 -2.882487
LeftShoulder -17.542525 13.016435 -17.361757
LeftArm 19.947231 9.447846 -67.450049
LeftForeArm 16.771267 -0.000000 11.303674
LeftHand 2.458627 -0.000000 -8.599219
LeftHandThumb1 -26.253704 0.000000 33.147579
RightShoulder -12.387403 28.493159 -46.282074
RightArm 120.117325 70.380053 101.820934
RightForeArm 27.451419 -0.000000 98.890880
RightHand -4.197814 -0.000000 -61.165903
RightHandThumb1 -24.326973 -0.000000 -32.862282
LeftUpLeg 5.464366 7.705638 6.512130
LeftLeg -8.941627 -0.000000 0.000000
LeftFoot -12.972768 20.625619 -9.524114
LeftToeBase 22.595512 -0.000000 -0.000000
RightUpLeg 7.742978 -12.303585 2.823316
RightLeg -5.380749 -0.000000 0.000000
RightFoot -7.992656 -31.691027 6.079390
RightToeBase 12.716416 -0.000000 -0.000000
